<svg xmlns="http://www.w3.org/2000/svg" xmlns:xlink="http://www.w3.org/1999/xlink" width="500" zoomAndPan="magnify" viewBox="0 0 375 374.999991" height="500" preserveAspectRatio="xMidYMid meet" version="1.0"><defs><g/><clipPath id="25551f29d3"><path d="M 128.316406 101.304688 L 246.816406 101.304688 L 246.816406 204 L 128.316406 204 Z M 128.316406 101.304688 " clip-rule="nonzero"/></clipPath></defs><rect x="-37.5" width="450" fill="#ffffff" y="-37.499999" height="449.999989" fill-opacity="1"/><rect x="-37.5" width="450" fill="#ffffff" y="-37.499999" height="449.999989" fill-opacity="1"/><g clip-path="url(#25551f29d3)"><path fill="#0c315d" d="M 246.675781 203.828125 L 218.375 154.8125 L 215.886719 150.507812 L 213.566406 146.480469 L 208.125 137.054688 L 179.0625 187.394531 L 158.308594 187.394531 L 187.496094 136.839844 L 193.0625 146.480469 L 203.3125 128.726562 L 187.496094 101.328125 L 128.316406 203.828125 L 190.078125 203.828125 L 208.125 172.570312 L 226.171875 203.828125 L 246.675781 203.828125 " fill-opacity="1" fill-rule="nonzero"/></g><g fill="#6b0000" fill-opacity="1"><g transform="translate(93.73828, 243.977269)"><g><path d="M 16.328125 0 L 15.21875 -4.234375 L 7.859375 -4.234375 L 6.71875 0 L 0 0 L 7.390625 -22.71875 L 15.546875 -22.71875 L 23.015625 0 Z M 13.953125 -9.25 L 12.96875 -12.96875 C 12.738281 -13.789062 12.460938 -14.859375 12.140625 -16.171875 C 11.816406 -17.484375 11.601562 -18.425781 11.5 -19 C 11.40625 -18.46875 11.222656 -17.597656 10.953125 -16.390625 C 10.679688 -15.179688 10.078125 -12.800781 9.140625 -9.25 Z M 13.953125 -9.25 "/></g></g></g><g fill="#6b0000" fill-opacity="1"><g transform="translate(116.754269, 243.977269)"><g><path d="M 8.5625 -8.234375 L 8.5625 0 L 2.453125 0 L 2.453125 -22.625 L 9.859375 -22.625 C 16.015625 -22.625 19.09375 -20.394531 19.09375 -15.9375 C 19.09375 -13.320312 17.8125 -11.296875 15.25 -9.859375 L 21.84375 0 L 14.90625 0 L 10.109375 -8.234375 Z M 8.5625 -12.828125 L 9.703125 -12.828125 C 11.835938 -12.828125 12.90625 -13.773438 12.90625 -15.671875 C 12.90625 -17.222656 11.859375 -18 9.765625 -18 L 8.5625 -18 Z M 8.5625 -12.828125 "/></g></g></g><g fill="#6b0000" fill-opacity="1"><g transform="translate(138.206962, 243.977269)"><g><path d="M 12.4375 0 L 6.3125 0 L 6.3125 -17.625 L 0.796875 -17.625 L 0.796875 -22.625 L 17.9375 -22.625 L 17.9375 -17.625 L 12.4375 -17.625 Z M 12.4375 0 "/></g></g></g><g fill="#6b0000" fill-opacity="1"><g transform="translate(156.935503, 243.977269)"><g><path d="M 21.84375 0 L 15.703125 0 L 15.703125 -9.21875 L 8.59375 -9.21875 L 8.59375 0 L 2.453125 0 L 2.453125 -22.625 L 8.59375 -22.625 L 8.59375 -14.234375 L 15.703125 -14.234375 L 15.703125 -22.625 L 21.84375 -22.625 Z M 21.84375 0 "/></g></g></g><g fill="#6b0000" fill-opacity="1"><g transform="translate(181.220699, 243.977269)"><g><path d="M 23.625 -11.34375 C 23.625 -7.539062 22.6875 -4.644531 20.8125 -2.65625 C 18.945312 -0.675781 16.210938 0.3125 12.609375 0.3125 C 9.066406 0.3125 6.347656 -0.679688 4.453125 -2.671875 C 2.554688 -4.671875 1.609375 -7.570312 1.609375 -11.375 C 1.609375 -15.144531 2.550781 -18.019531 4.4375 -20 C 6.320312 -21.988281 9.054688 -22.984375 12.640625 -22.984375 C 16.242188 -22.984375 18.972656 -22 20.828125 -20.03125 C 22.691406 -18.0625 23.625 -15.164062 23.625 -11.34375 Z M 8.046875 -11.34375 C 8.046875 -6.96875 9.566406 -4.78125 12.609375 -4.78125 C 14.160156 -4.78125 15.3125 -5.3125 16.0625 -6.375 C 16.8125 -7.4375 17.1875 -9.09375 17.1875 -11.34375 C 17.1875 -13.601562 16.804688 -15.269531 16.046875 -16.34375 C 15.285156 -17.425781 14.148438 -17.96875 12.640625 -17.96875 C 9.578125 -17.96875 8.046875 -15.757812 8.046875 -11.34375 Z M 8.046875 -11.34375 "/></g></g></g><g fill="#6b0000" fill-opacity="1"><g transform="translate(206.481013, 243.977269)"><g><path d="M 8.5625 -8.234375 L 8.5625 0 L 2.453125 0 L 2.453125 -22.625 L 9.859375 -22.625 C 16.015625 -22.625 19.09375 -20.394531 19.09375 -15.9375 C 19.09375 -13.320312 17.8125 -11.296875 15.25 -9.859375 L 21.84375 0 L 14.90625 0 L 10.109375 -8.234375 Z M 8.5625 -12.828125 L 9.703125 -12.828125 C 11.835938 -12.828125 12.90625 -13.773438 12.90625 -15.671875 C 12.90625 -17.222656 11.859375 -18 9.765625 -18 L 8.5625 -18 Z M 8.5625 -12.828125 "/></g></g></g><g fill="#6b0000" fill-opacity="1"><g transform="translate(227.933705, 243.977269)"><g><path d="M 2.453125 0 L 2.453125 -22.625 L 8.59375 -22.625 L 8.59375 0 Z M 2.453125 0 "/></g></g></g><g fill="#6b0000" fill-opacity="1"><g transform="translate(238.96962, 243.977269)"><g><path d="M 21.6875 -22.625 L 21.6875 -9.015625 C 21.6875 -6.046875 20.847656 -3.75 19.171875 -2.125 C 17.492188 -0.5 15.078125 0.3125 11.921875 0.3125 C 8.835938 0.3125 6.46875 -0.472656 4.8125 -2.046875 C 3.15625 -3.628906 2.328125 -5.90625 2.328125 -8.875 L 2.328125 -22.625 L 8.46875 -22.625 L 8.46875 -9.34375 C 8.46875 -7.75 8.765625 -6.585938 9.359375 -5.859375 C 9.960938 -5.140625 10.847656 -4.78125 12.015625 -4.78125 C 13.265625 -4.78125 14.171875 -5.140625 14.734375 -5.859375 C 15.296875 -6.578125 15.578125 -7.75 15.578125 -9.375 L 15.578125 -22.625 Z M 21.6875 -22.625 "/></g></g></g><g fill="#6b0000" fill-opacity="1"><g transform="translate(262.960726, 243.977269)"><g><path d="M 17.25 -6.875 C 17.25 -5.46875 16.890625 -4.21875 16.171875 -3.125 C 15.460938 -2.039062 14.4375 -1.195312 13.09375 -0.59375 C 11.75 0.0078125 10.175781 0.3125 8.375 0.3125 C 6.863281 0.3125 5.597656 0.207031 4.578125 0 C 3.554688 -0.21875 2.492188 -0.585938 1.390625 -1.109375 L 1.390625 -6.5625 C 2.554688 -5.96875 3.769531 -5.5 5.03125 -5.15625 C 6.289062 -4.820312 7.445312 -4.65625 8.5 -4.65625 C 9.40625 -4.65625 10.066406 -4.8125 10.484375 -5.125 C 10.910156 -5.445312 11.125 -5.851562 11.125 -6.34375 C 11.125 -6.65625 11.039062 -6.925781 10.875 -7.15625 C 10.707031 -7.394531 10.429688 -7.628906 10.046875 -7.859375 C 9.671875 -8.097656 8.671875 -8.582031 7.046875 -9.3125 C 5.566406 -9.988281 4.457031 -10.640625 3.71875 -11.265625 C 2.976562 -11.898438 2.429688 -12.625 2.078125 -13.4375 C 1.722656 -14.25 1.546875 -15.210938 1.546875 -16.328125 C 1.546875 -18.410156 2.300781 -20.035156 3.8125 -21.203125 C 5.332031 -22.367188 7.421875 -22.953125 10.078125 -22.953125 C 12.421875 -22.953125 14.8125 -22.410156 17.25 -21.328125 L 15.375 -16.609375 C 13.257812 -17.578125 11.429688 -18.0625 9.890625 -18.0625 C 9.097656 -18.0625 8.519531 -17.921875 8.15625 -17.640625 C 7.789062 -17.367188 7.609375 -17.023438 7.609375 -16.609375 C 7.609375 -16.160156 7.835938 -15.757812 8.296875 -15.40625 C 8.765625 -15.0625 10.015625 -14.425781 12.046875 -13.5 C 13.992188 -12.625 15.347656 -11.679688 16.109375 -10.671875 C 16.867188 -9.671875 17.25 -8.40625 17.25 -6.875 Z M 17.25 -6.875 "/></g></g></g></svg>